<svg width="29" height="28" viewBox="0 0 29 28" fill="none" xmlns="http://www.w3.org/2000/svg">
<g id="Icon">
<path id="Vector" d="M8.238 11.9585C9.17874 11.9585 10.0276 11.4384 10.6081 10.6981C11.5101 9.54797 12.647 8.59079 13.9465 7.89875C14.789 7.45007 15.52 6.78349 15.8745 5.89724C16.1226 5.27711 16.25 4.61534 16.25 3.94744V3.2085C16.25 2.72525 16.6418 2.3335 17.125 2.3335C18.5747 2.3335 19.75 3.50875 19.75 4.9585C19.75 6.30206 19.4472 7.5749 18.9061 8.71249C18.5962 9.36388 19.0309 10.2085 19.7522 10.2085M19.7522 10.2085H23.399C24.5968 10.2085 25.6689 11.0182 25.7957 12.2092C25.8481 12.7018 25.875 13.202 25.875 13.7085C25.875 17.0307 24.7178 20.0827 22.7845 22.4833C22.3323 23.0448 21.6332 23.3335 20.9123 23.3335H16.227C15.6627 23.3335 15.1021 23.2425 14.5668 23.0641L10.9332 21.8529C10.3979 21.6745 9.83732 21.5835 9.27304 21.5835H7.38824M19.7522 10.2085H17.125M7.38824 21.5835C7.48485 21.8222 7.58999 22.0565 7.70327 22.2861C7.93326 22.7522 7.61223 23.3335 7.09245 23.3335H6.03337C4.99654 23.3335 4.0349 22.7291 3.73232 21.7374C3.33743 20.4432 3.125 19.0694 3.125 17.646C3.125 15.8348 3.46894 14.1039 4.09507 12.5151C4.45097 11.612 5.36189 11.0835 6.33258 11.0835H7.5608C8.11138 11.0835 8.43019 11.7321 8.14435 12.2026C7.1802 13.7899 6.625 15.6531 6.625 17.646C6.625 19.0384 6.89604 20.3676 7.38824 21.5835Z" stroke="white" stroke-width="2" stroke-linecap="round" stroke-linejoin="round"/>
</g>
</svg>
