<svg width="24" height="25" viewBox="0 0 24 25" fill="none" xmlns="http://www.w3.org/2000/svg">
<path d="M11.4806 3.99883C11.6728 3.53685 12.3272 3.53685 12.5193 3.99883L14.6453 9.11028C14.7263 9.30504 14.9095 9.43811 15.1197 9.45497L20.638 9.89736C21.1367 9.93735 21.339 10.5598 20.959 10.8853L16.7546 14.4867C16.5945 14.6239 16.5245 14.8392 16.5734 15.0444L17.8579 20.4293C17.974 20.916 17.4446 21.3007 17.0176 21.0398L12.2932 18.1542C12.1132 18.0443 11.8868 18.0443 11.7068 18.1542L6.98238 21.0398C6.55539 21.3007 6.02594 20.916 6.14203 20.4293L7.42652 15.0444C7.47546 14.8392 7.4055 14.6239 7.24531 14.4867L3.04099 10.8853C2.661 10.5598 2.86323 9.93735 3.36197 9.89736L8.88022 9.45497C9.09048 9.43811 9.27363 9.30504 9.35464 9.11028L11.4806 3.99883Z" stroke="#999999" stroke-width="1.5" stroke-linecap="round" stroke-linejoin="round"/>
</svg>
