<svg width="29" height="28" viewBox="0 0 29 28" fill="none" xmlns="http://www.w3.org/2000/svg">
<g id="Icon">
<path id="Vector" d="M22.7997 6.57548C26.9002 10.676 26.9002 17.3242 22.7997 21.4247M19.7064 9.66916C22.0984 12.0611 22.0984 15.9393 19.7064 18.3312M8.375 9.62516L13.8813 4.11888C14.4325 3.56766 15.375 3.95805 15.375 4.7376V23.2627C15.375 24.0423 14.4325 24.4327 13.8813 23.8814L8.375 18.3752H5.76056C4.73466 18.3752 3.77356 17.7843 3.5011 16.7952C3.25595 15.9053 3.125 14.968 3.125 14.0002C3.125 13.0323 3.25595 12.095 3.5011 11.2051C3.77356 10.216 4.73466 9.62516 5.76056 9.62516H8.375Z" stroke="white" stroke-width="2" stroke-linecap="round" stroke-linejoin="round"/>
</g>
</svg>
